<svg xmlns="http://www.w3.org/2000/svg" viewBox="0 0 69.03 28.31" fill="#45e3b2"><g data-name="Layer 2"><g data-name="Layer 1"><path d="M20.68 2.11A9.48 9.48 0 0014.54 0H8.06a4.82 4.82 0 00-4.75 4L.07 22.58a4.86 4.86 0 004.74 5.73 4.82 4.82 0 004.83-4l.79-4.45h4.34a9.86 9.86 0 009.61-8.34 9.81 9.81 0 00-3.7-9.41zM4.8 26.15A2.64 2.64 0 012.21 23L4.76 8.38A4.69 4.69 0 008.1 9.7a5.59 5.59 0 001.9-.38L7.45 24a2.63 2.63 0 01-2.65 2.15zm17.45-15.58a7.77 7.77 0 01-7.57 7.08h-3.87l2.07-12a1.09 1.09 0 00-1.08-1.28 1.09 1.09 0 00-1.08.91 2.68 2.68 0 01-2.63 2.27 2.68 2.68 0 01-2.64-3.14 2.66 2.66 0 012.62-2.22h6.7A7.8 7.8 0 0121.71 7a8 8 0 01.54 3.57zM35.32 16.14l-.65 3.72h-2.31l2-11.38h3.88A3.83 3.83 0 0142 13a3.83 3.83 0 01-3.78 3.18zm.36-2.09h2.2a1.92 1.92 0 001.9-1.59 1.63 1.63 0 00-1.61-1.9h-1.88zM49.32 11.39h2.31l-1.47 8.46h-2.31l.09-.52c-.27.14-.49.3-.75.42a4.22 4.22 0 01-2.91.22 3.22 3.22 0 01-2.42-2.76 5.17 5.17 0 012.32-5.32 4.4 4.4 0 014.06-.5 2.31 2.31 0 011 .63zm-3.44 6.78h.51a3 3 0 002.44-3.27 1.87 1.87 0 00-1.23-1.62 2.6 2.6 0 00-2.87.81 3.25 3.25 0 00-.73 1.85 2.1 2.1 0 00.42 1.54 2 2 0 001.45.69zM66.72 11.39H69l-1.47 8.46h-2.28l.09-.52c-.27.14-.49.3-.75.42a4.22 4.22 0 01-2.91.22 3.22 3.22 0 01-2.42-2.76 5.17 5.17 0 012.32-5.32 4.4 4.4 0 014.06-.5 2.31 2.31 0 011 .63zm-3.45 6.78h.51a3 3 0 002.44-3.27A1.87 1.87 0 0065 13.24a2.6 2.6 0 00-2.87.81 3.25 3.25 0 00-.74 1.89 2.1 2.1 0 00.42 1.54 2 2 0 001.46.69zM53.25 11.39h2.31l-.22 1.23a4.51 4.51 0 014-1.32l-.42 2.39c-1.48-.07-3.76.15-4.26 3l-.55 3.11h-2.33zM27.73 19.85l1.47-8.46h2.31l-1.47 8.46h-2.31zM30.8 10.15a1.28 1.28 0 01-1.33-1.35 1.34 1.34 0 011.38-1.3 1.35 1.35 0 011.33 1.41 1.3 1.3 0 01-1.38 1.24z"/></g></g></svg>